<svg width="1522" height="945" viewBox="0 0 1522 945" fill="none" xmlns="http://www.w3.org/2000/svg">
<mask id="mask0_7175_309" style="mask-type:alpha" maskUnits="userSpaceOnUse" x="1155" y="0" width="367" height="945">
<rect x="1155" width="367" height="945" fill="#D9D9D9"/>
</mask>
<g mask="url(#mask0_7175_309)">
<path d="M1562.42 92.3671C1533.79 27.7207 1458.64 -13.0666 1387.33 3.82297C1352.63 12.0726 1321.97 31.8334 1300.6 59.7139C1279.64 87.831 1270.64 122.757 1275.5 157.188C1279.98 190.365 1296.31 222.475 1322.79 244.16C1347.15 264.136 1381.79 274.367 1413.22 267.456C1445.81 260.214 1466.9 233.075 1468.38 201.004C1469.99 165.827 1452.04 131.718 1427.16 107.296C1400.93 81.6897 1364.68 65.402 1327.21 72.0996C1289.74 78.7972 1265.3 107.315 1259.7 143.288C1253.09 185.726 1270.26 226.086 1278.07 267.126C1284.83 303.096 1281.48 340.179 1268.37 374.442C1243.37 440.7 1185.15 496.319 1113.95 512.995C1074.99 522.119 1029.54 520.178 996.251 496.358C965.954 474.673 953.146 435.691 960.516 400.301C967.965 364.561 996.072 338.275 1032.5 330.84C1068.62 323.482 1107.82 335.266 1129.81 364.91C1150.9 393.312 1154.67 432.119 1143.12 464.889C1130.37 500.804 1098.5 527.089 1062.44 539.63C980.774 567.799 896.993 524.934 844.765 464.074C790.066 400.34 763.673 319.483 715.289 251.789C673.559 193.374 605.733 136.726 528.048 141.444C451.12 146.045 397.338 210.652 373.654 277.026C343.476 361.571 348.317 453.687 322.302 539.281C298.957 616.119 246.23 692.956 160.956 711.147C122.191 719.78 81.4992 710.891 50.2245 686.958C21.222 664.749 0.705218 630.019 4.58948 593.25C8.57333 555.2 37.4762 522.702 72.5939 507.462C114.424 489.33 164.501 495.271 204.479 515.228C268.839 547.396 309.693 617.283 309.693 687.307C309.534 769.969 248.74 836.479 181.532 879.596C144.224 903.513 103.847 922.305 63.5504 940.923C60.941 942.126 63.2119 945.892 65.8213 944.805C144.542 908.289 227.506 869.093 277.802 796.429C298.957 765.912 312.681 730.618 314.055 693.539C315.007 659.647 307.155 626.071 291.228 595.929C257.245 530.797 185.058 484.031 108.309 493.562C71.4984 498.125 37.4763 517.383 16.9993 547.92C-2.33056 576.247 -5.38453 612.262 8.91187 643.297C23.3135 674.553 52.1168 698.878 84.7645 710.875C119.424 723.63 157.829 720.057 191.552 706.177C269.237 674.184 311.864 598.763 331.664 522.508C342.859 479.468 347.878 435.342 353.755 391.39C359.929 345.089 367.479 297.779 387.458 254.915C403.732 219.971 428.75 187.648 462.295 166.972C496.691 145.774 538.795 140.057 577.827 151.286C660.511 174.582 712.302 248.159 750.507 318.241C789.608 389.954 825.085 468.034 895.917 515.83C928.645 537.922 967.627 552.715 1007.82 552.948C1044.24 553.181 1081.15 541.61 1109.41 518.955C1136.64 497.347 1152.95 465.314 1154.13 431.11C1155.21 399.466 1143.31 366.58 1117.96 345.944C1092.6 325.307 1056.67 319.736 1025.25 328.025C993.004 336.548 967.487 359.824 958.165 391.254C949.122 421.714 954.879 456.658 974.798 481.953C998.123 511.597 1037.82 522.935 1074.83 522.275C1146.26 520.974 1211.22 478.731 1249.25 421.326C1268.43 392.651 1280.6 360.067 1284.82 326.084C1286.83 308.879 1286.51 291.49 1283.87 274.367C1280.22 250.78 1272.79 227.969 1267.71 204.673C1259.09 165.05 1258.41 114.091 1296.97 88.5426C1334.22 63.8489 1382.63 75.361 1414.89 102.132C1444.77 127.02 1467.46 165.711 1463.6 205.12C1461.76 223.717 1452.7 241.403 1436.93 252.43C1422.28 262.661 1403.88 266.019 1386.13 264.835C1304.36 259.011 1261.12 166.176 1285.84 96.0556C1298.9 59.0927 1330.16 29.5456 1367.01 14.7527C1404.02 -0.0688028 1445.72 1.01679 1481.86 17.7423C1516.13 33.4401 1543.38 60.7407 1558.53 94.5608C1559.69 97.1427 1563.55 94.9102 1562.42 92.3671Z" fill="#FF4C0D"/>
</g>
</svg>
