<?xml version="1.0" encoding="UTF-8"?>
<svg id="_Слой_2" data-name="Слой 2" xmlns="http://www.w3.org/2000/svg" viewBox="0 0 588.35 669.95">
  <defs>
    <style>
      .cls-1 {
        fill: #ff4c0d;
      }
    </style>
  </defs>
  <g id="_Слой_1-2" data-name="Слой 1">
    <path class="cls-1" d="M584.62,668.9l-101.45-223.92c-33-72.85-64.45-146.64-99.85-218.37-31.52-63.84-70.06-126.21-127.21-170.27-25.31-19.51-53.81-35.17-84.62-44.1C137.91,2.77,102.57,1.3,68.31,7.96c-20.88,3.91-40.54,9.94-59.14,17.73H0C56.81-.08,121.01-9.15,181.19,10.99c60.07,20.01,109.59,63.75,146.69,114.02,46.42,62.77,76.35,135.96,108.36,206.62l102.68,226.64,49.23,108.68c1.06,2.34-2.45,4.27-3.53,1.95Z"/>
  </g>
</svg>