<svg width="4330" height="2761" viewBox="0 0 4330 2761" fill="none" xmlns="http://www.w3.org/2000/svg">
<path d="M1690.76 1247.56C1739.26 1283.83 1762.17 1347.28 1754.38 1406.6C1746.3 1468.04 1703.64 1516.88 1644.95 1535.65C1588.28 1553.73 1520.83 1543.61 1478.21 1500.01C1438.34 1459.22 1420.61 1386.86 1468.29 1344.48C1508.56 1308.7 1579.06 1309.3 1615.79 1349.79C1652.53 1390.29 1649.65 1455.21 1619.64 1498.66C1581.75 1553.47 1508.78 1559.86 1448.21 1552.3C1374.78 1543.25 1298.71 1512.02 1224.76 1534.74C1166.45 1552.66 1119.83 1600.81 1098.81 1657.58C1088.1 1685.95 1084.63 1716.53 1088.7 1746.56C1093.44 1779.29 1111.36 1813.67 1140.69 1830.68C1173.33 1849.61 1209.87 1834.63 1227.42 1802.85C1246.68 1767.89 1239.27 1726.23 1231.03 1689.22C1215.27 1618.56 1188.28 1543.04 1129.62 1496.61C1077.62 1455.56 999.859 1439.45 943.285 1481C879.151 1528.12 869.621 1615.04 881.353 1687.91C887.725 1727.44 899.136 1766.07 910.189 1804.49C921.421 1843.55 932.932 1882.57 942.327 1922.17C960.049 1997.22 969.806 2075.15 954.416 2151.53C939.986 2223.18 903.586 2290.66 841.475 2331.53C783.692 2369.67 712.625 2382.71 644.342 2380.65C559.002 2378.17 475.853 2354.46 393.47 2334.26L129.216 2269.46L2.50841 2238.37C-0.218826 2237.71 0.493381 2233.38 3.21099 2234.02L264.296 2298.04C349.23 2318.88 433.932 2341.68 519.515 2359.69C595.709 2375.71 675.377 2384.7 751.867 2365.32C785.742 2356.74 818.457 2342.81 846.952 2322.35C877.78 2299.87 902.913 2270.47 920.329 2236.51C997.136 2089.26 938.508 1922.62 897.141 1774.69C877.455 1704.21 859.201 1627.41 884.838 1555.86C895.893 1524.91 914.859 1495.96 941.771 1476.61C966.338 1459.28 995.985 1450.66 1025.99 1452.13C1091.04 1454.69 1147.08 1495.15 1181.55 1548.48C1200.79 1578.33 1214.23 1611.58 1224.3 1645.48C1234.57 1680.12 1244.72 1717.66 1243.94 1754.02C1243.27 1784.98 1231.22 1817.99 1203.62 1834.76C1178.95 1849.73 1149.73 1844.66 1127.92 1827.15C1080.4 1789.02 1074.32 1720.35 1091.45 1665.62C1108.46 1611.35 1148.36 1563.84 1199.99 1539.59C1265.74 1508.78 1337.88 1527.21 1405.41 1540.62C1469.37 1553.33 1550.79 1562.65 1602.19 1512.57C1643.25 1472.57 1652.6 1398.91 1613.89 1354.26C1574.81 1309.12 1491.47 1313.26 1457.74 1363.04C1417.3 1422.68 1466.78 1500.91 1524.07 1526.36C1581.36 1551.8 1653.9 1540.61 1701.22 1499.36C1750.43 1456.39 1762.65 1384.46 1741.26 1324.4C1731.12 1295.21 1712.57 1269.67 1687.95 1251.01C1685.66 1249.29 1688.53 1245.95 1690.76 1247.56Z" fill="#FF4C0D"/>
<path d="M2639.15 468.556C2590.65 504.835 2567.74 568.284 2575.53 627.599C2583.61 689.044 2626.27 737.879 2684.96 756.646C2741.63 774.729 2809.08 764.612 2851.7 721.009C2891.57 680.219 2909.3 607.858 2861.62 565.48C2821.35 529.7 2750.85 530.296 2714.12 570.791C2677.38 611.286 2680.26 676.213 2710.27 719.662C2748.16 774.473 2821.13 780.865 2881.7 773.295C2955.13 764.252 3031.2 733.025 3105.15 755.743C3163.46 773.655 3210.08 821.813 3231.1 878.58C3241.81 906.945 3245.28 937.53 3241.21 967.565C3236.47 1000.29 3218.55 1034.67 3189.22 1051.68C3156.59 1070.61 3120.04 1055.63 3102.49 1023.85C3083.23 988.894 3090.64 947.228 3098.88 910.224C3114.64 839.564 3141.63 764.037 3200.3 717.607C3252.29 676.561 3330.05 660.45 3386.63 702.005C3450.76 749.12 3460.29 836.043 3448.56 908.91C3442.18 948.439 3430.77 987.068 3419.72 1025.49C3408.49 1064.55 3396.98 1103.57 3387.58 1143.17C3369.86 1218.22 3360.1 1296.15 3375.49 1372.53C3389.92 1444.18 3426.32 1511.66 3488.44 1552.53C3546.22 1590.67 3617.28 1603.71 3685.57 1601.65C3770.91 1599.17 3854.06 1575.46 3936.44 1555.26L4200.69 1490.46L4327.4 1459.37C4330.13 1458.71 4329.42 1454.38 4326.7 1455.02L4065.61 1519.04C3980.68 1539.88 3895.98 1562.68 3810.39 1580.69C3734.2 1596.71 3654.53 1605.7 3578.04 1586.32C3544.17 1577.74 3511.45 1563.81 3482.96 1543.35C3452.13 1520.87 3427 1491.47 3409.58 1457.51C3332.77 1310.26 3391.4 1143.62 3432.77 995.694C3452.46 925.214 3470.71 848.412 3445.07 776.857C3434.02 745.914 3415.05 716.958 3388.14 697.607C3363.57 680.276 3333.93 671.66 3303.92 673.133C3238.87 675.686 3182.83 716.154 3148.36 769.481C3129.12 799.334 3115.68 832.584 3105.61 866.485C3095.34 901.124 3085.19 938.657 3085.97 975.017C3086.64 1005.98 3098.69 1038.99 3126.29 1055.76C3150.96 1070.73 3180.18 1065.66 3201.99 1048.15C3249.51 1010.02 3255.59 941.355 3238.46 886.622C3221.45 832.348 3181.55 784.835 3129.92 760.593C3064.17 729.784 2992.03 748.21 2924.5 761.617C2860.54 774.334 2779.12 783.653 2727.72 733.57C2686.66 693.567 2677.31 619.912 2716.02 575.263C2755.1 530.118 2838.44 534.258 2872.17 584.037C2912.61 643.684 2863.13 721.912 2805.84 747.358C2748.55 772.804 2676.01 761.609 2628.69 720.357C2579.48 677.392 2567.26 605.459 2588.65 545.4C2598.79 516.206 2617.34 490.672 2641.96 472.008C2644.25 470.291 2641.38 466.951 2639.15 468.556Z" fill="#FF4C0D"/>
</svg>
