<svg width="383" height="263" viewBox="0 0 383 263" fill="none" xmlns="http://www.w3.org/2000/svg">
<mask id="mask0_7344_301" style="mask-type:alpha" maskUnits="userSpaceOnUse" x="0" y="0" width="383" height="263">
<rect width="383" height="263" fill="#D9D9D9"/>
</mask>
<g mask="url(#mask0_7344_301)">
<path d="M0.0950797 155.908C-1.21288 100.537 31.4751 48.2192 78.5316 20.3121C127.282 -8.59147 186.499 -5.50363 233.154 26.1067C278.169 56.6403 308.999 110.863 301.722 166.149C294.912 217.864 252.889 271.492 195.479 261.144C146.999 252.398 107.6 201.362 115.969 152.067C124.338 102.773 172.653 68.1605 220.855 65.1993C281.674 61.4809 327.494 110.346 356.27 158.183C391.248 216.097 411.763 288.441 469.879 328.789C515.699 360.601 576.672 366.927 629.367 349.969C655.816 341.648 679.773 326.868 699.069 306.969C719.931 285.076 734.527 252.77 730.19 222.062C725.37 187.901 693.951 170.08 661.183 175.414C625.162 181.311 599.388 210.182 577.432 237.012C535.517 288.258 496.449 350.335 496.203 418.756C496.058 479.334 528.402 544.359 590.246 561.568C660.359 581.072 728.253 538.82 774.026 489.22C798.854 462.306 820.187 432.278 841.573 402.624C863.32 372.478 884.878 342.157 908.048 313.03C952.009 257.887 1002.54 206.847 1066.16 174.767C1125.84 144.667 1194.93 132.719 1259.41 154.298C1319.48 174.308 1369 218.05 1406.1 268.317C1452.52 331.091 1482.45 404.277 1514.46 474.939L1617.14 701.582L1666.37 810.261C1667.43 812.599 1663.92 814.531 1662.84 812.214L1561.39 588.292C1528.39 515.441 1496.94 441.647 1461.54 369.925C1430.02 306.083 1391.48 243.709 1334.33 199.651C1309.02 180.137 1280.52 164.484 1249.71 155.548C1216.13 146.078 1180.79 144.614 1146.53 151.275C997.247 179.22 910.527 315.523 827.517 428.839C787.953 482.812 743.034 539.326 677.093 561.313C648.595 570.843 617.058 573.563 587.939 565.141C561.596 557.265 538.652 540.811 522.759 518.399C487.85 470.181 485.291 407.016 504.168 352.101C514.768 321.401 531.085 292.95 549.776 266.557C568.884 239.603 590.143 211.102 616.732 191.122C639.378 174.116 669.921 164.13 697.576 174.506C722.28 183.789 735.138 207.662 734.871 233.242C734.291 288.958 688.349 332.123 639.309 350.721C590.669 369.149 533.96 367.297 487.358 343.86C428.063 313.987 400.558 251.697 372.047 195.555C345.06 142.375 305.77 78.5636 240.714 69.8911C188.749 62.9598 130.501 97.8484 120.257 150.906C109.869 204.513 159.927 262.107 214.781 258.243C280.523 253.634 308.827 173.857 294.763 118.283C280.699 62.7091 231.665 16.8624 175.269 6.14124C116.567 -4.98104 57.9376 26.8719 26.8267 76.1791C11.5645 99.9688 3.67968 127.731 4.16336 155.977C4.22251 158.594 0.202928 158.421 0.0950797 155.908Z" fill="#FF4C0D"/>
</g>
</svg>
