<svg width="961" height="530" viewBox="0 0 961 530" fill="none" xmlns="http://www.w3.org/2000/svg">
<mask id="mask0_7282_307" style="mask-type:alpha" maskUnits="userSpaceOnUse" x="0" y="0" width="961" height="530">
<path d="M0 0H961V530H176.7L88.35 338H0V0Z" fill="#C4C4C4"/>
</mask>
<g mask="url(#mask0_7282_307)">
<path d="M933.826 92.3552C967.477 142.712 967.951 210.168 940.856 263.505C912.782 318.755 856.299 350.6 794.702 348.752C735.251 346.936 675.016 314.937 649.341 259.63C625.328 207.892 632.705 133.757 691.774 109.673C741.658 89.3427 807.938 113.378 829.093 163.795C850.249 214.211 825.921 274.476 783.153 305.452C729.179 344.52 658.243 326.251 603.646 298.945C537.418 265.969 476.09 211.196 398.792 207.995C337.848 205.471 277.848 235.355 239.131 281.887C219.587 305.067 206.128 332.75 199.971 362.428C193.539 394.865 198.99 433.244 220.988 459.054C245.453 487.771 284.903 485.815 312.032 461.691C341.834 435.141 348.715 393.384 353.266 355.748C361.939 283.875 361.636 203.67 321.774 140.355C286.414 84.3394 218.452 43.2551 151.27 63.6018C75.1089 86.6747 37.1806 165.465 23.9808 238.08C16.8279 277.475 14.7254 317.699 12.3549 357.609C9.93964 398.184 7.80197 438.809 3.4753 479.278C-4.80286 555.947 -21.5493 632.676 -61.4928 699.572C-98.9555 762.329 -155.749 813.844 -227.925 831.702C-295.109 848.423 -366.461 837.052 -430.163 812.378C-509.807 781.622 -580.319 731.585 -651.272 685.099L-878.872 536.009L-988.001 464.513C-990.35 462.975 -988.238 459.134 -985.89 460.644L-761.017 607.939C-687.868 655.869 -615.59 705.571 -540.889 751.052C-474.376 791.525 -402.248 826.532 -323.669 833.726C-288.87 836.914 -253.382 834.666 -219.702 824.864C-183.147 813.931 -149.658 794.574 -121.929 768.351C-0.477778 655.084 -0.274564 478.428 9.97264 325.169C14.8768 252.156 23.2367 173.659 71.2358 114.722C91.9632 89.226 119.488 68.2366 151.307 58.9513C180.243 50.7884 211.067 52.5361 238.874 63.9163C299.356 87.9811 338.727 144.8 353.476 206.562C361.676 241.117 363.282 276.946 361.489 312.266C359.639 348.347 356.711 387.118 343.868 421.143C332.924 450.114 310.576 477.229 278.963 483.854C250.715 489.757 224.856 475.249 210.115 451.475C178.005 399.695 195.131 332.923 229.512 287.018C263.622 241.505 317.065 209.988 373.824 204.321C446.073 197.16 507.964 238.555 567.183 273.685C623.258 306.972 696.922 342.867 762.068 312.757C814.107 288.709 847.444 222.368 825.815 167.379C803.996 111.798 724.033 87.9531 675.652 123.661C617.654 166.437 638.265 256.676 683.812 299.746C729.359 342.815 801.494 356.414 859.844 333.269C920.559 309.144 956.027 245.382 955.86 181.63C956.013 150.723 947.026 120.47 930.03 94.6753C928.442 92.2942 932.254 90.0984 933.826 92.3552Z" fill="#FF4C0D"/>
</g>
</svg>
