<svg width="1756" height="1134" viewBox="0 0 1756 1134" fill="none" xmlns="http://www.w3.org/2000/svg">
<path d="M65.1485 0.555937C16.6509 36.8347 -6.2564 100.284 1.53303 159.599C9.60964 221.044 52.2659 269.879 110.964 288.646C167.628 306.729 235.079 296.612 277.705 253.009C317.575 212.219 335.303 139.858 287.623 97.48C247.355 61.7002 176.854 62.2957 140.119 102.791C103.384 143.286 106.257 208.213 136.271 251.662C174.157 306.473 247.128 312.865 307.702 305.295C381.131 296.252 457.197 265.025 531.15 287.743C589.457 305.655 636.083 353.813 657.097 410.58C667.808 438.945 671.282 469.53 667.205 499.565C662.471 532.292 644.551 566.666 615.216 583.68C582.585 602.611 546.037 587.632 528.489 555.852C509.226 520.894 516.643 479.228 524.882 442.224C540.636 371.564 567.626 296.037 626.295 249.607C678.288 208.561 756.052 192.45 812.625 234.005C876.759 281.12 886.289 368.043 874.557 440.91C868.185 480.439 856.774 519.068 845.721 557.489C834.489 596.553 822.978 635.572 813.583 675.172C795.861 750.223 786.104 828.15 801.494 904.528C815.924 976.178 852.324 1043.66 914.435 1084.53C972.218 1122.67 1043.28 1135.71 1111.57 1133.65C1196.91 1131.17 1280.06 1107.46 1362.44 1087.26L1626.69 1022.46L1753.4 991.374C1756.13 990.707 1755.42 986.381 1752.7 987.023L1491.61 1051.04C1406.68 1071.88 1321.98 1094.68 1236.39 1112.69C1160.2 1128.71 1080.53 1137.7 1004.04 1118.32C970.168 1109.74 937.453 1095.81 908.959 1075.35C878.13 1052.87 852.997 1023.47 835.581 989.506C758.774 842.263 817.402 675.62 858.769 527.694C878.455 457.214 896.709 380.412 871.072 308.857C860.017 277.914 841.052 248.958 814.139 229.607C789.572 212.276 759.925 203.66 729.916 205.133C664.872 207.686 608.829 248.154 574.358 301.481C555.12 331.334 541.676 364.584 531.606 398.485C521.337 433.124 511.189 470.657 511.969 507.017C512.643 537.978 524.688 570.988 552.291 587.76C576.961 602.732 606.175 597.663 627.991 580.153C675.51 542.019 681.594 473.355 664.459 418.622C647.449 364.348 607.55 316.835 555.916 292.593C490.175 261.784 418.032 280.21 350.495 293.617C286.536 306.334 205.124 315.653 153.721 265.57C112.658 225.567 103.312 151.912 142.016 107.263C181.096 62.1181 264.437 66.2582 298.168 116.037C338.613 175.684 289.132 253.912 231.844 279.358C174.555 304.804 102.008 293.609 54.694 252.357C5.47646 209.392 -6.73753 137.459 14.6464 77.3998C24.7936 48.2057 43.3405 22.6719 67.9559 4.00771C70.2457 2.29115 67.3821 -1.04869 65.1485 0.555937Z" fill="#FF4C0D"/>
</svg>
